<svg width="42" height="42" viewBox="0 0 42 42" fill="none" xmlns="http://www.w3.org/2000/svg">
<g clip-path="url(#clip0)">
<path d="M23.1056 36.283C23.2918 35.0231 23.8666 33.8566 24.7747 32.9638C24.7884 32.9504 24.8021 32.9369 24.8156 32.9233C28.1488 29.5901 27.3477 23.3849 23.0265 19.0636C18.7052 14.7423 12.5 13.9413 9.16682 17.2745C9.15197 17.2894 9.13721 17.3043 9.12244 17.3193C8.23109 18.2275 7.06485 18.8014 5.80608 18.9881C4.38998 19.1983 3.02727 19.8544 1.94471 20.9566C-0.641165 23.5894 -0.649368 27.8566 1.92699 30.4988C2.54788 31.1356 3.26188 31.6247 4.02584 31.9664C6.74567 33.1828 8.91023 35.3473 10.1266 38.0671C10.4682 38.8311 10.9574 39.545 11.5942 40.1659C14.2368 42.7428 18.5051 42.7341 21.1378 40.147C22.2403 39.0637 22.8961 37.7 23.1056 36.283Z" fill="#916DD5"/>
<path d="M29.5914 9.15553C31.8918 6.85517 32.2778 3.51162 30.4537 1.68749C28.6296 -0.136641 25.286 0.249418 22.9857 2.54977C20.6853 4.85013 20.2992 8.19368 22.1234 10.0178C23.9475 11.8419 27.2911 11.4559 29.5914 9.15553Z" fill="#916DD5"/>
<path d="M12.0387 9.81901C14.3391 7.51865 14.7251 4.1751 12.901 2.35097C11.0769 0.526841 7.73331 0.9129 5.43296 3.21326C3.1326 5.51361 2.74654 8.85717 4.57067 10.6813C6.3948 12.5054 9.73835 12.1194 12.0387 9.81901Z" fill="#916DD5"/>
<path d="M39.9805 19.5468C42.2808 17.2464 42.6669 13.9028 40.8427 12.0787C39.0186 10.2546 35.6751 10.6407 33.3747 12.941C31.0743 15.2414 30.6883 18.5849 32.5124 20.409C34.3365 22.2332 37.6801 21.8471 39.9805 19.5468Z" fill="#916DD5"/>
<path d="M39.0996 36.8857C41.4 34.5854 41.7861 31.2418 39.9619 29.4177C38.1378 27.5936 34.7943 27.9796 32.4939 30.28C30.1935 32.5803 29.8075 35.9239 31.6316 37.748C33.4557 39.5721 36.7993 39.1861 39.0996 36.8857Z" fill="#916DD5"/>
</g>
<defs>
<clipPath id="clip0">
<rect width="42" height="42" fill="white"/>
</clipPath>
</defs>
</svg>
